# xmcd
#
# Track frame offsets: 
#        150
#        25942
#        46275
#
# Disc length: 958 seconds
#
# Revision: 2
# Processed by: cddbd v1.5.2PL0 Copyright (c) Steve Scherf et al.
# Submitted via: ExactAudioCopy v0.99pb5
#
DISCID=1c03bc03
DTITLE=YeLLOW Generation - LOST Generation [MAXI]
DYEAR=2002
DGENRE=J-Pop
TTITLE0=LOST Generation
TTITLE1=Like a road mirage
TTITLE2=LOST Generation(LESS VOCAL)
EXTD=
EXTT0=
EXTT1=
EXTT2=
PLAYORDER=
